<svg xmlns="http://www.w3.org/2000/svg" width="1024" height="1024">
    <path d="M0 0h1024v1024H0V0Z"/>
    <path d="M361 264h97a164690.048 164690.048 0 0 1 .167 149.356c.013 16.582.037 33.165.064 49.747.029 17.035.045 34.07.051 51.105.004 10.498.017 20.996.042 31.494.016 7.214.02 14.429.017 21.643-.002 4.152 0 8.305.017 12.457.063 16.948-.197 33.478-3.358 50.198l-.616 3.539c-2.1 11.853-5.465 22.305-11.426 32.764-.892 1.58-1.728 3.193-2.56 4.806-12.713 24.61-36.307 43.757-62.47 52.59-4.593 1.391-9.218 2.392-13.928 3.301l-3.281.68c-18.597 3.171-39.44 3.153-57.719-1.68l-3.863-.914C269.128 717.818 242.803 697.89 226 672c-2.188-3.655-4.244-7.367-6.25-11.125l-1.487-2.768-1.341-2.615-1.2-2.332c-.859-2.57-.775-3.682.278-6.16a96.344 96.344 0 0 1 6.688-5.563l2.047-1.595a912.876 912.876 0 0 1 4.216-3.265c3.011-2.318 5.999-4.666 8.987-7.014l1.706-1.335c5.283-4.142 10.488-8.377 15.676-12.638a424.723 424.723 0 0 1 10.032-7.977l1.97-1.518C269 605 269 605 271 605c1.6 2.41 3.093 4.825 4.563 7.313 9.013 14.782 18.339 25.899 35.285 31.273 11.389 2.19 22.632.507 32.402-5.649 9.654-7.202 14.07-19.455 16.317-30.944.822-5.68.72-11.374.711-17.103l.018-4.233c.016-3.854.02-7.708.02-11.562.004-4.165.02-8.33.033-12.495.023-7.208.038-14.416.048-21.624.014-10.421.04-20.843.068-31.265.045-16.91.082-33.82.113-50.73.03-16.422.065-32.844.105-49.267l.007-3.07.037-15.245c.104-42.133.192-84.266.273-126.399ZM720 262a242947.789 242947.789 0 0 1 .111 153.394c.01 17.033.025 34.066.043 51.1.019 17.493.03 34.987.034 52.48.003 10.784.012 21.568.028 32.351.01 7.408.014 14.815.011 22.223-.001 4.265 0 8.53.011 12.796.101 41.798.101 41.798-4.426 58.906l-.642 2.494c-2.152 7.904-5.368 15.026-9.17 22.256l-1.5 3.016c-3.427 6.667-7.668 12.275-12.5 17.984-.442.565-.884 1.13-1.34 1.71-16.79 21.37-44.926 31.977-71.05 35.624-34.065 3.834-69.591-.742-97.485-21.834A220.263 220.263 0 0 1 518 703l-2.41-2.047C499.16 686.631 486.283 669.173 478 649c8.415-6.892 16.855-13.727 25.504-20.324 5.05-3.853 10.048-7.77 15.054-11.68 1.436-1.119 2.874-2.234 4.316-3.346 1.459-1.132 2.906-2.28 4.342-3.441l2.14-1.693 1.906-1.538L533 606c4.172 1.39 5.149 4.292 7.188 7.938 7.465 12.77 16.212 23.924 30.625 29.125 12.163 2.916 25.177 1.736 35.937-4.688 9.657-6.932 13.374-18.411 15.817-29.613.874-5.575.72-11.198.711-16.828a3153.121 3153.121 0 0 0 .038-15.892c.004-4.19.02-8.38.033-12.57.023-7.254.038-14.507.048-21.76.014-10.488.04-20.975.068-31.462.045-17.016.082-34.031.113-51.047.03-16.526.065-33.053.105-49.58l.007-3.088.037-15.339c.104-42.399.193-84.797.273-127.196a1784825.29 1784825.29 0 0 1 86.166-1.816c.884-.02 1.77-.038 2.68-.057 6.04-.127 6.04-.127 7.154-.127Z" fill="#FEFEFE"/>
</svg>
